# xmcd CD database file
#
# Track frame offsets:
#	150
#	20435
#	43042
#	67370
#	91572
#	117160
#	139280
#	157442
#	182467
#	204512
#	223802
#	245415
#	271490
#	291665
#	316250
#
# Disc length: 4528 seconds
#
# Revision: 2
# Processed by: cddbd v1.5PL3 Copyright (c) Steve Scherf et al.
# Submitted via: CDex 1.50Beta7
#
DISCID=ed11ae0f
DTITLE=杏里 - My Favorite Songs 2
DYEAR=1991
DGENRE=Pop
TTITLE0=Christmas Calendar
TTITLE1=ボーイフレンド
TTITLE2=さよなら シングル・デイズ
TTITLE3=最後のサーフホリデー
TTITLE4=Summer Candles
TTITLE5=愛してるなんてとても言えない
TTITLE6=スノーフレイクの街角
TTITLE7=Groove a Go Go
TTITLE8=P.S. 言葉にならない
TTITLE9=Mind Cruisin'
TTITLE10=Sweet Emotion
TTITLE11=Stardust Go Home
TTITLE12=Back to the Basic
TTITLE13=嘘ならやさしく
TTITLE14=ラスト ラブ
EXTD=\n\n\n YEAR: 1991
EXTT0=
EXTT1=
EXTT2=
EXTT3=
EXTT4=
EXTT5=
EXTT6=
EXTT7=
EXTT8=
EXTT9=
EXTT10=
EXTT11=
EXTT12=
EXTT13=
EXTT14=
PLAYORDER=
